<?xml version="1.0" encoding="UTF-8" standalone="no"?><!DOCTYPE svg PUBLIC "-//W3C//DTD SVG 1.1//EN" "http://www.w3.org/Graphics/SVG/1.1/DTD/svg11.dtd"><svg width="100%" height="100%" viewBox="0 0 16 16" version="1.1" xmlns="http://www.w3.org/2000/svg" xmlns:xlink="http://www.w3.org/1999/xlink" xml:space="preserve" xmlns:serif="http://www.serif.com/" style="fill-rule:evenodd;clip-rule:evenodd;stroke-linejoin:round;stroke-miterlimit:1.41421;"><path d="M7,7l0,7l-7,0l0,-7.1c0,-4.8 4.5,-5.4 4.5,-5.4l0.6,1.4c0,0 -2,0.3 -2.4,1.9c-0.4,1.2 0.4,2.2 0.4,2.2l3.9,0Z" style="fill:#ccf9ff;fill-rule:nonzero;"/><path d="M16,7l0,7l-7,0l0,-7.1c0,-4.8 4.5,-5.4 4.5,-5.4l0.6,1.4c0,0 -2,0.3 -2.4,1.9c-0.4,1.2 0.4,2.2 0.4,2.2l3.9,0Z" style="fill:#ccf9ff;fill-rule:nonzero;"/></svg>