<?xml version="1.0" encoding="UTF-8" standalone="no"?><!DOCTYPE svg PUBLIC "-//W3C//DTD SVG 1.1//EN" "http://www.w3.org/Graphics/SVG/1.1/DTD/svg11.dtd"><svg width="100%" height="100%" viewBox="0 0 250 90" version="1.1" xmlns="http://www.w3.org/2000/svg" xmlns:xlink="http://www.w3.org/1999/xlink" xml:space="preserve" xmlns:serif="http://www.serif.com/" style="fill-rule:evenodd;clip-rule:evenodd;stroke-linejoin:round;stroke-miterlimit:1.41421;"><g><path d="M50.848,39.1l-15.609,-2.694l-6.464,-12.408l-7.268,12.408l-16.656,2.178l12.052,10.574l-2.845,14.93l11.924,-6.63l1.6,0.54c0.003,-0.011 -0.001,-0.023 0.002,-0.033c0.154,-0.456 0.677,-0.724 1.191,-0.609c1.129,0.175 2.201,0.571 3.14,1.162c0.137,0.094 0.25,0.214 0.33,0.352c0.148,0.056 0.274,0.15 0.363,0.27c0.121,-0.046 0.252,-0.07 0.384,-0.07c0.409,-0.016 0.774,0.228 0.874,0.585c0.323,-0.171 0.729,-0.15 1.029,0.053c0.3,0.202 0.435,0.547 0.344,0.874l7.928,2.936l-2.866,-14.36l10.547,-10.058Z" style="fill:#e8c929;fill-rule:nonzero;"/><path d="M43.564,64.893c-0.145,0 -0.288,-0.032 -0.417,-0.093l-14.48,-6.851l-14.481,6.851c-0.301,0.143 -0.667,0.119 -0.942,-0.061c-0.276,-0.18 -0.414,-0.486 -0.357,-0.788l2.766,-14.512l-11.716,-10.278c-0.244,-0.214 -0.332,-0.534 -0.226,-0.826c0.105,-0.291 0.385,-0.504 0.722,-0.548l16.19,-2.117l7.241,-13.204c0.168,-0.256 0.473,-0.413 0.803,-0.413c0.33,0 0.635,0.157 0.802,0.413l7.241,13.204l16.19,2.117c0.337,0.044 0.617,0.257 0.723,0.548c0.105,0.292 0.017,0.612 -0.226,0.826l-11.716,10.278l2.765,14.512c0.044,0.234 -0.028,0.474 -0.198,0.656c-0.17,0.181 -0.42,0.286 -0.684,0.286Zm-14.897,-8.66c0.145,0 0.288,0.032 0.417,0.093l13.291,6.289l-2.538,-13.321c-0.049,-0.261 0.047,-0.528 0.257,-0.713l10.754,-9.434l-14.861,-1.944c-0.291,-0.038 -0.543,-0.202 -0.673,-0.44l-6.647,-12.12l-6.647,12.119c-0.13,0.238 -0.382,0.403 -0.674,0.441l-14.861,1.944l10.754,9.434c0.211,0.185 0.307,0.452 0.257,0.713l-2.538,13.321l13.292,-6.289c0.128,-0.061 0.271,-0.093 0.417,-0.093Z" style="fill:#ffd022;fill-rule:nonzero;"/></g><clipPath id="_clip1"><rect id="star" x="63.393" y="12.273" width="56" height="50.4"/></clipPath><g clip-path="url(#_clip1)"><g><path d="M116.237,32.575l-17.483,-3.017l-7.24,-13.897l-8.139,13.897l-18.655,2.44l13.498,11.842l-3.186,16.721l13.354,-7.425l1.792,0.605c0.004,-0.012 -0.001,-0.026 0.003,-0.037c0.172,-0.511 0.758,-0.81 1.333,-0.682c1.265,0.196 2.466,0.64 3.517,1.301c0.154,0.106 0.281,0.24 0.371,0.394c0.165,0.064 0.306,0.169 0.405,0.304c0.137,-0.053 0.283,-0.08 0.431,-0.079c0.458,-0.018 0.866,0.255 0.979,0.655c0.362,-0.191 0.816,-0.168 1.152,0.059c0.336,0.227 0.488,0.613 0.385,0.979l8.879,3.288l-3.209,-16.083l11.813,-11.265Z" style="fill:#e8c929;fill-rule:nonzero;"/><path d="M108.079,61.463c-0.163,0 -0.323,-0.035 -0.467,-0.104l-16.219,-7.673l-16.218,7.673c-0.337,0.16 -0.747,0.134 -1.055,-0.068c-0.309,-0.202 -0.464,-0.544 -0.399,-0.882l3.097,-16.254l-13.122,-11.512c-0.273,-0.239 -0.371,-0.598 -0.253,-0.924c0.118,-0.327 0.431,-0.565 0.809,-0.614l18.133,-2.371l8.11,-14.789c0.187,-0.286 0.529,-0.462 0.898,-0.462c0.37,0 0.712,0.176 0.899,0.462l8.11,14.789l18.133,2.371c0.378,0.049 0.691,0.287 0.809,0.614c0.118,0.326 0.02,0.685 -0.253,0.924l-13.122,11.512l3.097,16.254c0.05,0.262 -0.031,0.53 -0.221,0.734c-0.191,0.203 -0.471,0.32 -0.766,0.32Zm-16.686,-9.699c0.163,0 0.323,0.036 0.467,0.104l14.887,7.044l-2.842,-14.92c-0.056,-0.292 0.051,-0.591 0.287,-0.798l12.045,-10.566l-16.644,-2.177c-0.327,-0.043 -0.609,-0.227 -0.755,-0.494l-7.445,-13.574l-7.444,13.574c-0.146,0.267 -0.428,0.451 -0.755,0.494l-16.644,2.176l12.045,10.567c0.236,0.207 0.343,0.506 0.287,0.798l-2.842,14.92l14.887,-7.044c0.143,-0.068 0.304,-0.104 0.466,-0.104Z" style="fill:#ffd022;fill-rule:nonzero;"/></g></g><g><path d="M185.63,32.575l-17.483,-3.017l-7.239,-13.897l-8.14,13.897l-18.655,2.44l13.499,11.842l-3.187,16.721l13.355,-7.425l1.792,0.605c0.003,-0.012 -0.001,-0.026 0.002,-0.037c0.173,-0.511 0.759,-0.81 1.334,-0.682c1.264,0.196 2.465,0.64 3.517,1.301c0.154,0.106 0.28,0.24 0.37,0.394c0.165,0.064 0.306,0.169 0.406,0.304c0.136,-0.053 0.282,-0.08 0.431,-0.079c0.457,-0.018 0.866,0.255 0.978,0.655c0.362,-0.191 0.817,-0.168 1.153,0.059c0.336,0.227 0.487,0.613 0.384,0.979l8.88,3.288l-3.209,-16.083l11.812,-11.265Z" style="fill:#e8c929;fill-rule:nonzero;"/><path d="M177.472,61.463c-0.163,0 -0.323,-0.035 -0.467,-0.104l-16.218,-7.673l-16.218,7.673c-0.338,0.16 -0.747,0.134 -1.056,-0.068c-0.309,-0.202 -0.463,-0.544 -0.399,-0.882l3.097,-16.254l-13.121,-11.512c-0.274,-0.239 -0.372,-0.598 -0.254,-0.924c0.118,-0.327 0.432,-0.565 0.809,-0.614l18.133,-2.371l8.11,-14.789c0.188,-0.286 0.53,-0.462 0.899,-0.462c0.369,0 0.711,0.176 0.899,0.462l8.11,14.789l18.132,2.371c0.378,0.049 0.692,0.287 0.81,0.614c0.118,0.326 0.02,0.685 -0.254,0.924l-13.121,11.512l3.097,16.254c0.05,0.262 -0.031,0.53 -0.222,0.734c-0.19,0.203 -0.471,0.32 -0.766,0.32Zm-16.685,-9.699c0.163,0 0.323,0.036 0.467,0.104l14.887,7.044l-2.843,-14.92c-0.056,-0.292 0.052,-0.591 0.288,-0.798l12.044,-10.566l-16.644,-2.177c-0.326,-0.043 -0.609,-0.227 -0.754,-0.494l-7.445,-13.574l-7.444,13.574c-0.146,0.267 -0.429,0.451 -0.755,0.494l-16.644,2.176l12.044,10.567c0.236,0.207 0.344,0.506 0.288,0.798l-2.843,14.92l14.887,-7.044c0.144,-0.068 0.304,-0.104 0.467,-0.104Z" style="fill:#ffd022;fill-rule:nonzero;"/></g><g><path d="M243.848,40.627l-15.609,-2.694l-6.464,-12.408l-7.268,12.408l-16.656,2.178l12.052,10.574l-2.845,14.93l11.924,-6.63l1.6,0.54c0.003,-0.011 -0.001,-0.023 0.002,-0.033c0.154,-0.456 0.677,-0.723 1.191,-0.609c1.129,0.175 2.201,0.571 3.14,1.162c0.137,0.094 0.25,0.214 0.33,0.352c0.148,0.056 0.274,0.15 0.363,0.271c0.121,-0.047 0.252,-0.071 0.384,-0.071c0.409,-0.016 0.774,0.229 0.874,0.585c0.323,-0.171 0.729,-0.15 1.029,0.053c0.3,0.202 0.435,0.547 0.344,0.874l7.928,2.936l-2.866,-14.36l10.547,-10.058Z" style="fill:#e8c929;fill-rule:nonzero;"/><path d="M236.564,66.42c-0.145,0 -0.288,-0.032 -0.417,-0.093l-14.48,-6.851l-14.481,6.851c-0.301,0.143 -0.667,0.119 -0.942,-0.061c-0.276,-0.18 -0.414,-0.485 -0.357,-0.788l2.766,-14.512l-11.716,-10.278c-0.244,-0.214 -0.332,-0.534 -0.226,-0.826c0.105,-0.291 0.385,-0.504 0.722,-0.547l16.19,-2.118l7.241,-13.204c0.168,-0.256 0.473,-0.413 0.803,-0.413c0.33,0 0.635,0.157 0.802,0.413l7.241,13.204l16.19,2.118c0.337,0.043 0.617,0.256 0.723,0.547c0.105,0.292 0.017,0.612 -0.226,0.826l-11.716,10.278l2.765,14.512c0.044,0.234 -0.028,0.474 -0.198,0.656c-0.17,0.181 -0.42,0.286 -0.684,0.286Zm-14.897,-8.66c0.145,0 0.288,0.032 0.417,0.093l13.291,6.289l-2.538,-13.321c-0.049,-0.261 0.047,-0.528 0.257,-0.713l10.754,-9.434l-14.861,-1.944c-0.291,-0.038 -0.543,-0.202 -0.673,-0.44l-6.647,-12.12l-6.647,12.12c-0.13,0.237 -0.382,0.402 -0.674,0.44l-14.861,1.944l10.754,9.434c0.211,0.185 0.307,0.452 0.257,0.713l-2.538,13.321l13.292,-6.289c0.128,-0.061 0.271,-0.093 0.417,-0.093Z" style="fill:#ffd022;fill-rule:nonzero;"/></g></svg>