<?xml version="1.0" encoding="UTF-8" standalone="no"?><!DOCTYPE svg PUBLIC "-//W3C//DTD SVG 1.1//EN" "http://www.w3.org/Graphics/SVG/1.1/DTD/svg11.dtd"><svg width="100%" height="100%" viewBox="0 0 1300 500" version="1.1" xmlns="http://www.w3.org/2000/svg" xmlns:xlink="http://www.w3.org/1999/xlink" xml:space="preserve" xmlns:serif="http://www.serif.com/" style="fill-rule:evenodd;clip-rule:evenodd;stroke-linecap:round;stroke-linejoin:round;stroke-miterlimit:1.5;"><path d="M532.992,253.638l-79.086,0l0,-74.655l64.707,0l14.379,74.655Z" style="fill:#b4e1fa;fill-rule:nonzero;"/><path d="M187.889,380.552l388.242,0c3.97,0 7.19,-3.343 7.19,-7.466l0,-52.258l-402.621,0l0,52.258c0,4.123 3.218,7.466 7.189,7.466Z" style="fill:#707487;fill-rule:nonzero;"/><path d="M453.906,320.828l0,-119.448l-28.758,0l0,119.448l-244.448,0l0,29.861l402.62,0l0,-29.861l-129.414,0Z" style="fill:#5b5d6e;fill-rule:nonzero;"/><g><path d="M180.7,134.189l244.448,0c3.971,0 7.19,3.343 7.19,7.466l0,179.173c0,4.122 -3.219,7.466 -7.19,7.466l-244.448,0c-3.971,0 -7.19,-3.344 -7.19,-7.466l0,-179.173c0,-4.123 3.219,-7.466 7.19,-7.466Z" style="fill:#fae6bb;fill-rule:nonzero;"/><path d="M572.891,258.009l-33.572,-9.96l-10.413,-59.486c-2.492,-14.202 -14.394,-24.511 -28.295,-24.511l-46.705,0c-3.973,0 -7.19,3.339 -7.19,7.466l0,134.38l136.604,0l0,-33.532c0,-6.666 -4.256,-12.526 -10.429,-14.357Zm-97.415,-11.837c-7.942,0 -14.38,-6.684 -14.38,-14.931l0,-37.327c0,-4.123 3.22,-7.466 7.19,-7.466l39.72,0c3.478,0 6.458,2.586 7.075,6.141l8.41,48.452c0.463,2.673 -1.514,5.131 -4.129,5.131l-43.886,0Z" style="fill:#fae6bb;fill-rule:nonzero;"/></g><ellipse cx="511.424" cy="388.017" rx="43.138" ry="44.794" style="fill:#464655;"/><ellipse cx="511.424" cy="388.017" rx="28.758" ry="29.862" style="fill:#c7cfe2;"/><ellipse cx="511.424" cy="388.017" rx="10.784" ry="11.198" style="fill:#afb9d2;"/><ellipse cx="245.406" cy="388.017" rx="43.138" ry="44.794" style="fill:#464655;"/><ellipse cx="245.406" cy="388.017" rx="28.758" ry="29.862" style="fill:#c7cfe2;"/><ellipse cx="245.406" cy="388.017" rx="10.784" ry="11.198" style="fill:#afb9d2;"/><path d="M453.906,373.086l2.747,0c2.722,0 5.212,-1.597 6.43,-4.126l15.608,-32.412c2.435,-5.059 7.414,-8.254 12.861,-8.254l39.744,0c5.446,0 10.426,3.195 12.861,8.254l15.608,32.412c1.218,2.529 3.707,4.126 6.43,4.126l17.125,0c3.97,0 7.19,-3.343 7.19,-7.466l0,-52.258c0,-8.247 -6.438,-14.931 -14.379,-14.931l-129.415,0l0,67.189c0,4.123 3.22,7.466 7.19,7.466Z" style="fill:#ffcd87;fill-rule:nonzero;"/><path d="M425.148,395.483l-71.897,0c-3.97,0 -7.19,-3.343 -7.19,-7.466l0,-29.862c0,-4.123 3.22,-7.466 7.19,-7.466l71.897,0c3.971,0 7.19,3.343 7.19,7.466l0,29.862c-0.001,4.123 -3.219,7.466 -7.19,7.466Z" style="fill:#afb9d2;fill-rule:nonzero;"/><g><path d="M374.82,365.62c-3.971,0 -7.19,3.343 -7.19,7.466l0,22.397l14.38,0l0,-22.397c0,-4.123 -3.22,-7.466 -7.19,-7.466Z" style="fill:#959cb3;fill-rule:nonzero;"/><path d="M403.579,365.62c-3.971,0 -7.19,3.343 -7.19,7.466l0,22.397l14.379,0l0,-22.397c0,-4.123 -3.219,-7.466 -7.189,-7.466Z" style="fill:#959cb3;fill-rule:nonzero;"/></g><path d="M410.768,313.362l-215.689,0c-3.971,0 -7.19,-3.343 -7.19,-7.466c0,-4.123 3.219,-7.466 7.19,-7.466l215.689,0c3.971,0 7.19,3.343 7.19,7.466c0,4.124 -3.219,7.466 -7.19,7.466Z" style="fill:#ffcd87;fill-rule:nonzero;"/><path d="M234.11,165.409c0,-0.856 -0.694,-1.55 -1.55,-1.55l-169.5,0c-0.856,0 -1.55,0.694 -1.55,1.55l0,1.9c0,0.855 0.694,1.55 1.55,1.55l169.5,0c0.856,0 1.55,-0.695 1.55,-1.55l0,-1.9Z" style="fill:#007eff;fill-opacity:0.41;"/><path d="M234.11,280.05c0,-0.855 -0.694,-1.55 -1.55,-1.55l-169.5,0c-0.856,0 -1.55,0.695 -1.55,1.55l0,1.9c0,0.855 0.694,1.55 1.55,1.55l169.5,0c0.856,0 1.55,-0.695 1.55,-1.55l0,-1.9Z" style="fill:#007eff;fill-opacity:0.41;"/><path d="M178.11,224.004c0,-0.855 -0.694,-1.55 -1.55,-1.55l-169.5,0c-0.856,0 -1.55,0.695 -1.55,1.55l0,1.9c0,0.856 0.694,1.55 1.55,1.55l169.5,0c0.856,0 1.55,-0.694 1.55,-1.55l0,-1.9Z" style="fill:#007eff;fill-opacity:0.41;"/><path d="M201.11,251.55c0,-0.855 -0.694,-1.55 -1.55,-1.55l-169.5,0c-0.856,0 -1.55,0.695 -1.55,1.55l0,1.9c0,0.855 0.694,1.55 1.55,1.55l169.5,0c0.856,0 1.55,-0.695 1.55,-1.55l0,-1.9Z" style="fill:#007eff;fill-opacity:0.41;"/><path d="M201.11,193.004c0,-0.855 -0.694,-1.55 -1.55,-1.55l-169.5,0c-0.856,0 -1.55,0.695 -1.55,1.55l0,1.9c0,0.856 0.694,1.55 1.55,1.55l169.5,0c0.856,0 1.55,-0.694 1.55,-1.55l0,-1.9Z" style="fill:#007eff;fill-opacity:0.41;"/><g><rect x="1121.9" y="24.184" width="36.277" height="36.277" style="fill:#695a69;"/><path d="M819.602,193.473l0,193.474l169.29,0l0,-145.104l96.736,0l0,145.104l169.289,0l0,-193.474l-217.657,0l-217.658,0Zm133.013,48.37l0,96.737l-12.092,0l-60.461,0l-12.092,0l0,-12.093l0,-48.368l0,-12.092l0,-24.184l0,-12.093l84.646,0l0,12.093l-0.001,0Zm169.289,84.644l0,-48.368l0,-12.092l0,-24.184l0,-12.093l84.646,0l0,108.83l-12.092,0l-60.461,0l-12.093,0l0,-12.093Z" style="fill:#f2d057;fill-rule:nonzero;"/><path d="M1206.55,60.461l-48.368,0l-36.277,0l-84.644,0l-169.29,0l-60.46,133.012l459.5,0l-60.461,-133.012Z" style="fill:#bf636b;fill-rule:nonzero;"/><path d="M880.062,326.487l48.369,0l-48.369,-48.369l0,48.369Z" style="fill:#95ffff;fill-rule:nonzero;"/><path d="M928.431,326.487l12.092,0l0,-48.369l-60.461,0l48.369,48.369Z" style="fill:#80d7f0;fill-rule:nonzero;"/><rect x="880.062" y="241.843" width="60.461" height="24.184" style="fill:#6eb1e2;"/><path d="M880.062,229.75l-12.092,0l0,108.83l84.646,0l0,-12.093l0,-48.368l0,-12.092l0,-24.184l0,-12.093l-12.092,0l-60.462,0Zm60.461,96.737l-12.093,0l-48.368,0l0,-48.368l60.461,0l0,48.368Zm0,-60.46l-60.461,0l0,-24.184l60.461,0l0,24.184Z" style="fill:#695a69;fill-rule:nonzero;"/><path d="M1134,278.118l0,48.369l48.368,0l-48.368,-48.369Z" style="fill:#95ffff;fill-rule:nonzero;"/><path d="M1194.46,326.487l0,-48.369l-60.461,0l48.368,48.369l12.093,0Z" style="fill:#80d7f0;fill-rule:nonzero;"/><rect x="1134" y="241.843" width="60.461" height="24.184" style="fill:#6eb1e2;"/><path d="M1194.46,338.579l12.092,0l0,-12.093l0,-48.368l0,-12.092l0,-24.184l0,-12.092l-12.092,0l-60.461,0l-12.093,0l0,108.83l72.554,0l0,-0.001Zm-60.461,-96.736l60.461,0l0,24.184l-60.461,0l0,-24.184Zm0,36.275l60.461,0l0,48.368l-12.093,0l-48.368,0l0,-48.368Z" style="fill:#695a69;fill-rule:nonzero;"/><path d="M1085.63,241.843l-96.736,0l0,193.473l96.736,0l0,-48.369l0,-145.104Z" style="fill:#bf636b;fill-rule:nonzero;"/><rect x="819.602" y="386.947" width="169.289" height="48.368" style="fill:#e9a868;"/><rect x="1085.63" y="386.947" width="169.289" height="48.368" style="fill:#e9a868;"/></g><g><text x="304.762px" y="261.437px" style="font-family:'KristenITC-Regular', 'Kristen ITC', cursive;font-stretch:semi-expanded;font-size:17.096px;fill:#fc9399;">&amp;</text><text x="319.578px" y="261.437px" style="font-family:'Arial-BoldMT', 'Arial', sans-serif;font-weight:700;font-size:17.096px;fill:#fc9399;">C<tspan x="331.468px 341.525px 356.165px 366.222px 375.378px 385.435px " y="261.437px 261.437px 261.437px 261.437px 261.437px 261.437px ">ompany</tspan></text></g><text x="217.704px" y="244.376px" style="font-family:'Arial-BoldMT', 'Arial', sans-serif;font-weight:700;font-size:77.459px;fill:#68d6e4;">N<tspan x="271.576px 292.301px 346.172px " y="244.376px 244.376px 244.376px ">IAH</tspan></text><rect x="223.241" y="179.874" width="171.085" height="0.635" style="fill:#008ad8;fill-opacity:0;stroke:#fc9399;stroke-width:0.62px;"/><rect x="223.241" y="256.378" width="76.394" height="0.635" style="fill:#2e7c38;fill-opacity:0;stroke:#fc9399;stroke-width:0.62px;"/></svg>